<svg width="18" height="18" viewBox="0 0 18 18" fill="none" xmlns="http://www.w3.org/2000/svg">
<path fill-rule="evenodd" clip-rule="evenodd" d="M7.33268 0.666016H15.666C16.6263 0.666016 17.3327 1.37244 17.3327 2.33268V10.666C17.3327 11.6263 16.6263 12.3327 15.666 12.3327H12.3327V15.666C12.3327 16.6263 11.6263 17.3327 10.666 17.3327H2.33268C1.37244 17.3327 0.666016 16.6263 0.666016 15.666V7.33268C0.666016 6.37245 1.37244 5.66602 2.33268 5.66602H5.66602V2.33268C5.66602 1.37244 6.37245 0.666016 7.33268 0.666016ZM5.66602 7.33268H2.33268V15.666H10.666V12.3327H7.33268C6.37245 12.3327 5.66602 11.6263 5.66602 10.666V7.33268ZM7.33268 2.33268V10.666H15.666V2.33268H7.33268Z" fill="#6F87A0"/>
</svg>
